HIERARCHY
ROOT Hips
{
	OFFSET 0.000000 0.000000 0.000000
	CHANNELS 6 Xposition Yposition Zposition Zrotation Yrotation Xrotation 
	JOINT LHipJoint
	{
		OFFSET 0.000000 0.000000 0.000000
		CHANNELS 3 Zrotation Yrotation Xrotation
		JOINT LeftUpLeg
		{
			OFFSET 1.363060 -1.794630 0.839290
			CHANNELS 3 Zrotation Yrotation Xrotation
			JOINT LeftLeg
			{
				OFFSET 2.448110 -6.726130 0.000000
				CHANNELS 3 Zrotation Yrotation Xrotation
				JOINT LeftFoot
				{
					OFFSET 2.562200 -7.039590 0.000000
					CHANNELS 3 Zrotation Yrotation Xrotation
					JOINT LeftToeBase
					{
						OFFSET 0.157640 -0.433110 2.322550
						CHANNELS 3 Zrotation Yrotation Xrotation
						End Site
						{
							OFFSET 0.000000 0.000000 0.000000
						}
					}
				}
			}
		}
	}
	JOINT RHipJoint
	{
		OFFSET 0.000000 0.000000 0.000000
		CHANNELS 3 Zrotation Yrotation Xrotation
		JOINT RightUpLeg
		{
			OFFSET -1.305520 -1.794630 0.839290
			CHANNELS 3 Zrotation Yrotation Xrotation
			JOINT RightLeg
			{
				OFFSET -2.542530 -6.985550 0.000000
				CHANNELS 3 Zrotation Yrotation Xrotation
				JOINT RightFoot
				{
					OFFSET -2.568260 -7.056230 0.000000
					CHANNELS 3 Zrotation Yrotation Xrotation
					JOINT RightToeBase
					{
						OFFSET -0.164730 -0.452590 2.363150
						CHANNELS 3 Zrotation Yrotation Xrotation
						End Site
						{
							OFFSET 0.000000 0.000000 0.000000
						}
					}
				}
			}
		}
	}
	JOINT LowerBack
	{
		OFFSET 0.000000 0.000000 0.000000
		CHANNELS 3 Zrotation Yrotation Xrotation
		JOINT Spine
		{
			OFFSET 0.028270 2.035590 -0.193380
			CHANNELS 3 Zrotation Yrotation Xrotation
			JOINT Spine1
			{
				OFFSET 0.056720 2.048850 -0.042750
				CHANNELS 3 Zrotation Yrotation Xrotation
				JOINT Neck
				{
					OFFSET 0.000000 0.000000 0.000000
					CHANNELS 3 Zrotation Yrotation Xrotation
					JOINT Neck1
					{
						OFFSET -0.054170 1.746240 0.172020
						CHANNELS 3 Zrotation Yrotation Xrotation
						JOINT Head
						{
							OFFSET 0.104070 1.761360 -0.123970
							CHANNELS 3 Zrotation Yrotation Xrotation
							End Site
							{
								OFFSET 0.000000 0.000000 0.000000
							}
						}
					}
				}
				JOINT LeftShoulder
				{
					OFFSET 0.000000 0.000000 0.000000
					CHANNELS 3 Zrotation Yrotation Xrotation
					JOINT LeftArm
					{
						OFFSET 3.362410 1.200890 -0.311210
						CHANNELS 3 Zrotation Yrotation Xrotation
						JOINT LeftForeArm
						{
							OFFSET 4.983000 -0.000000 -0.000000
							CHANNELS 3 Zrotation Yrotation Xrotation
							JOINT LeftHand
							{
								OFFSET 3.483560 -0.000000 -0.000000
								CHANNELS 3 Zrotation Yrotation Xrotation
								JOINT LeftFingerBase
								{
									OFFSET 0.000000 0.000000 0.000000
									CHANNELS 3 Zrotation Yrotation Xrotation
									JOINT LeftHandIndex1
									{
										OFFSET 0.715260 -0.000000 -0.000000
										CHANNELS 3 Zrotation Yrotation Xrotation
										End Site
										{
											OFFSET 0.000000 0.000000 0.000000
										}
									}
								}
								JOINT LThumb
								{
									OFFSET 0.000000 0.000000 0.000000
									CHANNELS 3 Zrotation Yrotation Xrotation
									End Site
									{
										OFFSET 0.000000 0.000000 0.000000
									}
								}
							}
						}
					}
				}
				JOINT RightShoulder
				{
					OFFSET 0.000000 0.000000 0.000000
					CHANNELS 3 Zrotation Yrotation Xrotation
					JOINT RightArm
					{
						OFFSET -3.136600 1.374050 -0.404650
						CHANNELS 3 Zrotation Yrotation Xrotation
						JOINT RightForeArm
						{
							OFFSET -5.241900 -0.000000 -0.000000
							CHANNELS 3 Zrotation Yrotation Xrotation
							JOINT RightHand
							{
								OFFSET -3.444170 -0.000000 -0.000000
								CHANNELS 3 Zrotation Yrotation Xrotation
								JOINT RightFingerBase
								{
									OFFSET 0.000000 0.000000 0.000000
									CHANNELS 3 Zrotation Yrotation Xrotation
									JOINT RightHandIndex1
									{
										OFFSET -0.622530 -0.000000 -0.000000
										CHANNELS 3 Zrotation Yrotation Xrotation
										End Site
										{
											OFFSET 0.000000 0.000000 0.000000
										}
									}
								}
								JOINT RThumb
								{
									OFFSET 0.000000 0.000000 0.000000
									CHANNELS 3 Zrotation Yrotation Xrotation
									End Site
									{
										OFFSET 0.000000 0.000000 0.000000
									}
								}
							}
						}
					}
				}
			}
		}
	}
}
MOTION
Frames: 5
Frame Time: 0.008333
9.743025 17.839703 24.851542 -177.812104 5.426178 -164.507640 5.249325 3.202515 -0.391688 -21.801712 -13.653196 -9.912939 0.127024 3.021157 9.413837 0.485646 -3.196352 -12.649536 8.020200 -16.134100 -52.635400 -11.428021 -5.076451 -2.116378 34.067700 7.595735 -8.460730 -0.194458 -2.791094 11.391973 -0.159965 1.619767 -8.407694 -0.073100 1.744600 -4.800400 -3.138747 2.410915 -4.556376 1.340451 2.638949 -4.789149 6.146938 1.257244 4.676090 -6.508433 -0.822853 -12.600315 2.875545 -4.031230 29.628937 0.133700 -2.803200 11.814500 2.130110 -4.659436 1.280903 -92.227810 -0.505328 14.250499 6.987258 -15.972965 -1.967209 0.320018 1.106100 23.735557 32.962124 -18.294009 -12.354900 -7.125000 0.000000 0.000000 3.039100 6.958300 -2.652400 -0.410589 5.528450 2.041497 81.849298 -11.136904 -1.416859 -14.498611 32.313112 -6.258654 0.641000 -2.146611 10.013731 -19.233074 -36.934801 11.841300 7.125000 0.000000 0.000000 16.615100 -65.554000 -8.353400 
9.752007 17.836495 24.844591 -177.817982 5.294665 -164.621654 5.266096 3.190394 -0.407011 -21.821361 -13.634350 -9.790863 0.130832 3.050712 9.515863 0.492059 -3.082674 -12.720203 8.317800 -16.348100 -53.699600 -11.402374 -5.078907 -2.122043 34.097923 7.628033 -8.238122 -0.182125 -2.772028 11.363697 -0.185112 1.573138 -8.738980 -0.108200 2.121300 -5.841100 -2.842352 2.545723 -4.393982 1.214649 2.782775 -4.777406 5.583522 1.349911 4.540720 -6.928645 -0.557239 -11.418054 4.752702 -3.715941 27.533807 1.018300 -2.433000 10.666300 2.087339 -4.756066 1.329581 -91.572602 -0.305746 14.336711 6.883398 -15.822122 -1.927617 0.302056 1.110356 23.982702 32.756965 -17.768404 -11.957800 -7.125000 0.000000 0.000000 3.005600 7.611200 -2.584700 -0.528617 5.457908 2.042072 82.437372 -11.171385 -2.504719 -13.768665 31.621321 -6.024361 0.570644 -2.203231 10.570446 -19.342522 -37.518727 12.038200 7.125000 0.000000 0.000000 17.050200 -66.070400 -8.780200 
9.759172 17.833501 24.834005 -177.819516 5.071908 -164.614595 5.279540 3.192135 -0.400520 -21.812025 -13.686423 -9.821779 0.140616 3.093528 9.633688 0.491311 -3.144185 -12.713527 8.485100 -16.464700 -54.291700 -11.380823 -5.072514 -2.127991 34.123633 7.583674 -8.117084 -0.165066 -2.727460 11.256798 -0.208966 1.554450 -9.055940 -0.125100 2.279900 -6.280000 -2.475110 2.553452 -4.409930 1.124937 2.768069 -4.803434 4.875367 1.300651 4.613316 -4.604255 -0.070614 -13.573818 3.161423 -2.758484 28.858475 -0.005900 -1.844000 11.709400 2.116328 -4.592106 1.291072 -90.926518 -0.158761 14.044815 6.735557 -15.606590 -1.875801 0.290479 1.111080 24.680162 32.368462 -16.897562 -11.281100 -7.125000 0.000000 0.000000 2.903700 8.700400 -2.434300 -0.597306 5.659660 2.040412 83.125656 -11.139841 -3.738450 -13.086489 30.923491 -5.773804 0.465261 -2.250862 11.204929 -20.216866 -36.545933 12.229800 7.125000 0.000000 0.000000 15.101200 -65.318800 -7.493800 
9.764305 17.831469 24.821279 -177.867435 4.919744 -164.641234 5.295501 3.183861 -0.405477 -21.891154 -13.718724 -9.744454 0.143365 3.089642 9.641736 0.489818 -3.197939 -12.691151 8.553900 -16.511900 -54.534000 -11.330663 -5.078262 -2.127480 34.038625 7.457949 -8.040979 -0.149392 -2.701030 11.193449 -0.265313 1.641033 -9.812017 -0.311800 3.589500 -9.924500 -2.014377 2.590567 -4.370223 0.972567 2.775839 -4.819986 3.990408 1.292044 4.613628 -3.952678 0.121370 -14.274906 3.353126 -2.643921 29.364266 -0.038000 -1.694500 12.122300 2.093104 -4.564467 1.294348 -90.133766 -0.057100 13.486812 6.543456 -15.310453 -1.817921 0.282597 1.111998 25.545576 32.109670 -16.386508 -10.877700 -7.125000 0.000000 0.000000 2.827200 9.347100 -2.333400 -0.739588 5.713219 2.023862 83.945218 -11.090834 -4.928154 -12.376456 30.230676 -5.523200 0.354712 -2.308051 11.858675 -20.950825 -35.466802 12.274400 7.125000 0.000000 0.000000 13.320700 -64.394700 -6.309500 
9.768475 17.828689 24.808447 -177.883665 4.879406 -164.717553 5.300401 3.172623 -0.414865 -21.946542 -13.691809 -9.590624 0.141801 3.074797 9.626217 0.494820 -3.176180 -12.742380 8.549800 -16.509100 -54.519700 -11.274246 -5.082935 -2.119835 33.972405 7.331401 -7.974073 -0.172013 -2.687747 11.173700 -0.309989 2.835679 -10.652192 -0.590800 4.921100 -13.683600 -1.583068 2.586950 -4.258184 0.853018 2.733769 -4.827133 3.289843 1.274122 4.588380 -4.357435 0.158255 -14.401681 4.391857 -2.885418 29.578762 0.460900 -1.769000 12.290100 2.049793 -4.598359 1.312415 -89.536931 0.025187 12.678972 6.321825 -14.968142 -1.766408 0.282185 1.114762 26.103843 32.128702 -16.512594 -10.962500 -7.125000 0.000000 0.000000 2.830200 9.199800 -2.344300 -0.870342 5.691903 2.005865 84.471844 -11.046356 -5.686642 -11.805716 29.685058 -5.324832 0.358355 -2.372089 12.686610 -19.216419 -35.870657 11.380600 7.125000 0.000000 0.000000 15.620800 -64.304500 -7.390100 
